<?xml version="1.0" encoding="UTF-8"?>
<svg width="1000px" height="1000px" viewBox="0 0 36 36" xmlns="http://www.w3.org/2000/svg">

  <path fill="#FFFFFF" d="
    M9 8
    C9 6.5 10 6 11.5 6
    H18
    C22 6 24 8 24 11
    C24 13 23 14.5 21 15
    C23.5 15.5 25 17.5 25 20
    C25 23.5 22.5 26 18 26
    H11.5
    C10 26 9 25.5 9 24
    Z

    M13 10
    V14
    H18
    C20 14 21 13 21 11.5
    C21 10 20 10 18 10
    Z

    M13 17
    V22
    H18
    C20.5 22 21.5 21 21.5 19.5
    C21.5 18 20.5 17 18 17
    Z
  "/>

</svg>